<svg xmlns="http://www.w3.org/2000/svg" xmlns:xlink="http://www.w3.org/1999/xlink" width="48" height="44.788" viewBox="0 0 48 44.788">
  <defs>
    <linearGradient id="linear-gradient" x1="0.036" y1="1" x2="0.897" y2="0.038" gradientUnits="objectBoundingBox">
      <stop offset="0" stop-color="#15649d"/>
      <stop offset="1" stop-color="#21b5a5"/>
    </linearGradient>
    <linearGradient id="linear-gradient-2" x1="0.966" x2="0" y2="1" gradientUnits="objectBoundingBox">
      <stop offset="0" stop-color="#1b9d90"/>
      <stop offset="0.488" stop-color="#0aafc4"/>
      <stop offset="1" stop-color="#186bae"/>
    </linearGradient>
  </defs>
  <g id="logo" transform="translate(-674.595 629.576)">
    <path id="Path_20770" data-name="Path 20770" d="M307.082,402.469a22.393,22.393,0,0,0,32.98,19.733,13.368,13.368,0,0,0,7.878,2.613,11.6,11.6,0,0,0,1.771-.132,2.1,2.1,0,0,0,.606-3.958,8.567,8.567,0,0,1-3.589-3.977,22.39,22.39,0,1,0-39.646-14.279Zm8.389-14.024a19.834,19.834,0,0,1,28.88,27.166,1.33,1.33,0,0,0-.312.72,1.308,1.308,0,0,0,.066.824,12.537,12.537,0,0,0,3.844,5.1h-.009a10.933,10.933,0,0,1-6.751-2.4.419.419,0,0,0-.1-.076,1.273,1.273,0,0,0-1.553-.2,19.834,19.834,0,0,1-24.06-31.134Z" transform="translate(369.121 -1009.651)" fill="url(#linear-gradient)"/>
    <g id="Group_8925" data-name="Group 8925" transform="translate(679.694 -619.637)" opacity="0.2">
      <path id="Path_20771" data-name="Path 20771" d="M336.929,626.038a9.83,9.83,0,0,1-1.868-2.157l-3.02-.182a15.141,15.141,0,0,0,2.863,3.935h3.828A19.947,19.947,0,0,1,336.929,626.038Z" transform="translate(-332.04 -599.56)"/>
      <path id="Path_20772" data-name="Path 20772" d="M580.893,451.138l-2.5-.008c.651.684.08.2.615.948a19.684,19.684,0,0,1,1.566,2.6h2.812a22.186,22.186,0,0,0-1.542-2.942C581.46,451.117,581.346,451.726,580.893,451.138Z" transform="translate(-543.936 -451.13)"/>
    </g>
    <path id="Path_20773" data-name="Path 20773" d="M320.8,475.747H297.2a1.609,1.609,0,1,1,0-3.217h23.6a4.92,4.92,0,0,0,0-9.834H316.81a7.347,7.347,0,0,1,0-14.691h25.17a1.609,1.609,0,1,1,0,3.217H316.81a4.131,4.131,0,0,0,0,8.256H320.8a8.136,8.136,0,0,1,0,16.268Z" transform="translate(379.007 -1068.079)" fill="url(#linear-gradient-2)"/>
  </g>
</svg>
